<svg xmlns="http://www.w3.org/2000/svg" version="1.1" xmlns:xlink="http://www.w3.org/1999/xlink" xmlns:svgjs="http://svgjs.dev/svgjs" width="1000" height="315" viewBox="0 0 1000 315"><g transform="matrix(1,0,0,1,-0.6060606060606233,-0.25372750403292343)"><svg viewBox="0 0 396 125" data-background-color="#ffffff" preserveAspectRatio="xMidYMid meet" height="315" width="1000" xmlns="http://www.w3.org/2000/svg" xmlns:xlink="http://www.w3.org/1999/xlink"><g id="tight-bounds" transform="matrix(1,0,0,1,0.2400000000000091,0.10068551747338006)"><svg viewBox="0 0 395.52 124.79860985527208" height="124.79860985527208" width="395.52"><g><svg viewBox="0 0 627.2420292527418 197.91396969443284" height="124.79860985527208" width="395.52"><g transform="matrix(1,0,0,1,231.72202925274178,27.352798995395574)"><svg viewBox="0 0 395.52 143.2083717036417" height="143.2083717036417" width="395.52"><g><svg viewBox="0 0 395.52 143.2083717036417" height="143.2083717036417" width="395.52"><g><svg viewBox="0 0 395.52 143.2083717036417" height="143.2083717036417" width="395.52"><g transform="matrix(1,0,0,1,0,0)"><svg width="395.52" viewBox="3.3 -33.7 119.44 43.25000000000001" height="143.2083717036417" data-palette-color="#ee3e38"><path d="M29.65-33.7L29.65-12.95Q29.65-6.4 26.13-2.98 22.6 0.45 16.45 0.45L16.45 0.45Q10.45 0.45 6.88-2.93 3.3-6.3 3.3-12.6L3.3-12.6 3.3-33.7 9.6-33.7 9.6-12.65Q9.6-8.8 11.5-7.08 13.4-5.35 16.45-5.35L16.45-5.35Q23.35-5.35 23.35-12.9L23.35-12.9 23.35-33.7 29.65-33.7ZM42.2-3.8L42.2 9.55 36.2 9.55 36.2-25.35 42.2-25.35 42.2-21.45Q44.9-25.7 49.95-25.7L49.95-25.7Q54.9-25.7 57.82-22.15 60.75-18.6 60.75-12.8L60.75-12.8Q60.75-7.1 57.82-3.38 54.9 0.35 49.9 0.35L49.9 0.35Q44.8 0.35 42.2-3.8L42.2-3.8ZM44.1-18.65Q42.2-16.7 42.2-12.85 42.2-9 44.05-6.9 45.9-4.8 48.5-4.8L48.5-4.8Q51.2-4.8 52.9-6.88 54.6-8.95 54.6-12.7 54.6-16.45 52.9-18.53 51.2-20.6 48.6-20.6 46-20.6 44.1-18.65ZM77.15 0L77.15 0 66.15 0 66.15-33.7 77.15-33.7Q84.7-33.7 89.5-29.05 94.3-24.4 94.3-17.3L94.3-17.3Q94.3-9.55 89.65-4.78 85 0 77.15 0ZM76.95-28.4L76.95-28.4 72.6-28.4 72.6-5.25 77.05-5.25Q82.35-5.25 85.1-8.53 87.85-11.8 87.85-17.3L87.85-17.3Q87.85-22.15 84.92-25.28 82-28.4 76.95-28.4ZM122.74-12.75L122.74-12.75Q122.74-7 119.52-3.3 116.29 0.4 110.49 0.4L110.49 0.4Q104.74 0.4 101.52-3.2 98.29-6.8 98.29-12.4L98.29-12.4Q98.29-18.2 101.64-21.98 104.99-25.75 110.49-25.75L110.49-25.75Q116.34-25.75 119.54-22.08 122.74-18.4 122.74-12.75ZM104.59-12.6L104.59-12.6Q104.59-9.1 106.14-6.75 107.69-4.4 110.54-4.4L110.54-4.4Q113.49-4.4 114.99-6.7 116.49-9 116.49-12.55L116.49-12.55Q116.49-16.2 115.04-18.53 113.59-20.85 110.49-20.85L110.49-20.85Q107.64-20.85 106.12-18.5 104.59-16.15 104.59-12.6Z" opacity="1" transform="matrix(1,0,0,1,0,0)" fill="#ee3e38" class="undefined-text-0" data-fill-palette-color="primary" id="text-0"></path></svg></g></svg></g></svg></g></svg></g><g><svg viewBox="0 0 197.91396969443286 197.91396969443284" height="197.91396969443284" width="197.91396969443286"><g><svg></svg></g><g id="icon-0"><svg viewBox="0 0 197.91396969443286 197.91396969443284" height="197.91396969443284" width="197.91396969443286"><g><path transform="scale(1.97914,1.97914)" d="M30 100c-16.569 0-30-13.431-30-30v-40c0-16.569 13.431-30 30-30h40c16.569 0 30 13.431 30 30v40c0 16.569-13.431 30-30 30z" fill="#ee3e38" fill-rule="nonzero" stroke="none" stroke-width="1" stroke-linecap="butt" stroke-linejoin="miter" stroke-miterlimit="10" stroke-dasharray="" stroke-dashoffset="0" font-family="none" font-weight="none" font-size="none" text-anchor="none" style="mix-blend-mode: normal" data-fill-palette-color="accent"></path></g><g transform="matrix(1,0,0,1,61.07012404721644,61.15056324212088)"><svg viewBox="0 0 75.77372159999999 75.61284321019107" height="75.61284321019107" width="75.77372159999999"><g><svg xmlns="http://www.w3.org/2000/svg" xmlns:xlink="http://www.w3.org/1999/xlink" version="1.1" x="0" y="0" viewBox="0.5 0.5 47.1 47" enable-background="new 0 0 48 48" xml:space="preserve" height="75.61284321019107" width="75.77372159999999" class="icon-ju-0" data-fill-palette-color="quaternary" id="ju-0"><g fill="#ffffff" data-fill-palette-color="quaternary"><path d="M11.3 0.5C5.3 0.5 0.5 5.3 0.5 11.3s4.8 10.8 10.8 10.8 10.8-4.8 10.8-10.8S17.2 0.5 11.3 0.5z" fill="#ffffff" data-fill-palette-color="quaternary"></path><path d="M11.3 25.9c-5.9 0-10.8 4.8-10.8 10.8s4.8 10.8 10.8 10.8 10.8-4.8 10.8-10.8S17.2 25.9 11.3 25.9z" fill="#ffffff" data-fill-palette-color="quaternary"></path><path d="M26.5 13.2h19.1c1.1 0 2-0.9 2-2s-0.9-2-2-2H26.5c-1.1 0-2 0.9-2 2S25.4 13.2 26.5 13.2z" fill="#ffffff" data-fill-palette-color="quaternary"></path><path d="M45.5 34.8H26.5c-1.1 0-2 0.9-2 2s0.9 2 2 2h19.1c1.1 0 2-0.9 2-2S46.6 34.8 45.5 34.8z" fill="#ffffff" data-fill-palette-color="quaternary"></path></g></svg></g></svg></g></svg></g></svg></g></svg></g><defs></defs></svg><rect width="395.52" height="124.79860985527208" fill="none" stroke="none" visibility="hidden"></rect></g></svg></g></svg>